<mxfile host="app.diagrams.net" agent="Mozilla/5.0 (Windows NT 10.0; Win64; x64) AppleWebKit/537.36 (KHTML, like Gecko) Chrome/131.0.0.0 Safari/537.36 Edg/131.0.0.0" version="25.0.0" pages="3">
  <diagram name="Navegação" id="ezWCQtylDRQjl9QlH66g">
    <mxGraphModel dx="2022" dy="692" grid="1" gridSize="10" guides="1" tooltips="1" connect="1" arrows="1" fold="1" page="1" pageScale="1" pageWidth="827" pageHeight="1169" math="0" shadow="0">
      <root>
        <mxCell id="0" />
        <mxCell id="1" parent="0" />
        <mxCell id="8I36rK1n1SUIfNZlOtXW-8" value="" style="edgeStyle=orthogonalEdgeStyle;rounded=0;orthogonalLoop=1;jettySize=auto;html=1;" edge="1" parent="1" source="8I36rK1n1SUIfNZlOtXW-3" target="8I36rK1n1SUIfNZlOtXW-5">
          <mxGeometry relative="1" as="geometry" />
        </mxCell>
        <mxCell id="8I36rK1n1SUIfNZlOtXW-11" style="edgeStyle=orthogonalEdgeStyle;rounded=0;orthogonalLoop=1;jettySize=auto;html=1;entryX=0.5;entryY=0;entryDx=0;entryDy=0;" edge="1" parent="1" source="8I36rK1n1SUIfNZlOtXW-3" target="8I36rK1n1SUIfNZlOtXW-6">
          <mxGeometry relative="1" as="geometry">
            <Array as="points">
              <mxPoint x="420" y="180" />
              <mxPoint x="710" y="180" />
            </Array>
          </mxGeometry>
        </mxCell>
        <mxCell id="8I36rK1n1SUIfNZlOtXW-12" style="edgeStyle=orthogonalEdgeStyle;rounded=0;orthogonalLoop=1;jettySize=auto;html=1;entryX=0.5;entryY=0;entryDx=0;entryDy=0;" edge="1" parent="1" source="8I36rK1n1SUIfNZlOtXW-3" target="8I36rK1n1SUIfNZlOtXW-7">
          <mxGeometry relative="1" as="geometry">
            <Array as="points">
              <mxPoint x="420" y="180" />
              <mxPoint x="1000" y="180" />
            </Array>
          </mxGeometry>
        </mxCell>
        <mxCell id="8I36rK1n1SUIfNZlOtXW-13" style="edgeStyle=orthogonalEdgeStyle;rounded=0;orthogonalLoop=1;jettySize=auto;html=1;entryX=0.5;entryY=0;entryDx=0;entryDy=0;" edge="1" parent="1" source="8I36rK1n1SUIfNZlOtXW-3" target="8I36rK1n1SUIfNZlOtXW-4">
          <mxGeometry relative="1" as="geometry">
            <Array as="points">
              <mxPoint x="420" y="180" />
              <mxPoint x="-10" y="180" />
            </Array>
          </mxGeometry>
        </mxCell>
        <mxCell id="8I36rK1n1SUIfNZlOtXW-3" value="Home" style="rounded=0;whiteSpace=wrap;html=1;" vertex="1" parent="1">
          <mxGeometry x="360" y="80" width="120" height="60" as="geometry" />
        </mxCell>
        <mxCell id="8I36rK1n1SUIfNZlOtXW-21" value="" style="edgeStyle=orthogonalEdgeStyle;rounded=0;orthogonalLoop=1;jettySize=auto;html=1;" edge="1" parent="1" source="8I36rK1n1SUIfNZlOtXW-4" target="8I36rK1n1SUIfNZlOtXW-15">
          <mxGeometry relative="1" as="geometry" />
        </mxCell>
        <mxCell id="8I36rK1n1SUIfNZlOtXW-4" value="&lt;a href=&quot;data:page/id,5EHCtcs9kEm-UWzT6FUK&quot;&gt;Challenge&lt;/a&gt;" style="rounded=0;whiteSpace=wrap;html=1;" vertex="1" parent="1">
          <mxGeometry x="-70" y="240" width="120" height="60" as="geometry" />
        </mxCell>
        <mxCell id="8I36rK1n1SUIfNZlOtXW-36" style="edgeStyle=orthogonalEdgeStyle;rounded=0;orthogonalLoop=1;jettySize=auto;html=1;entryX=0.5;entryY=0;entryDx=0;entryDy=0;" edge="1" parent="1" source="8I36rK1n1SUIfNZlOtXW-5" target="8I36rK1n1SUIfNZlOtXW-34">
          <mxGeometry relative="1" as="geometry" />
        </mxCell>
        <mxCell id="8I36rK1n1SUIfNZlOtXW-37" style="edgeStyle=orthogonalEdgeStyle;rounded=0;orthogonalLoop=1;jettySize=auto;html=1;entryX=0.5;entryY=0;entryDx=0;entryDy=0;" edge="1" parent="1" source="8I36rK1n1SUIfNZlOtXW-5" target="8I36rK1n1SUIfNZlOtXW-35">
          <mxGeometry relative="1" as="geometry" />
        </mxCell>
        <mxCell id="8I36rK1n1SUIfNZlOtXW-5" value="&lt;a href=&quot;data:page/id,496m7DnQk6Kbzwh4w0HC&quot;&gt;Help&lt;/a&gt;" style="rounded=0;whiteSpace=wrap;html=1;" vertex="1" parent="1">
          <mxGeometry x="360" y="240" width="120" height="60" as="geometry" />
        </mxCell>
        <mxCell id="8I36rK1n1SUIfNZlOtXW-39" style="edgeStyle=orthogonalEdgeStyle;rounded=0;orthogonalLoop=1;jettySize=auto;html=1;entryX=0.5;entryY=0;entryDx=0;entryDy=0;" edge="1" parent="1" source="8I36rK1n1SUIfNZlOtXW-6" target="8I36rK1n1SUIfNZlOtXW-38">
          <mxGeometry relative="1" as="geometry" />
        </mxCell>
        <mxCell id="8I36rK1n1SUIfNZlOtXW-6" value="Community project" style="rounded=0;whiteSpace=wrap;html=1;" vertex="1" parent="1">
          <mxGeometry x="650" y="240" width="120" height="60" as="geometry" />
        </mxCell>
        <mxCell id="8I36rK1n1SUIfNZlOtXW-41" value="" style="edgeStyle=orthogonalEdgeStyle;rounded=0;orthogonalLoop=1;jettySize=auto;html=1;" edge="1" parent="1" source="8I36rK1n1SUIfNZlOtXW-7" target="8I36rK1n1SUIfNZlOtXW-40">
          <mxGeometry relative="1" as="geometry" />
        </mxCell>
        <mxCell id="8I36rK1n1SUIfNZlOtXW-7" value="Profile" style="rounded=0;whiteSpace=wrap;html=1;" vertex="1" parent="1">
          <mxGeometry x="940" y="240" width="120" height="60" as="geometry" />
        </mxCell>
        <mxCell id="8I36rK1n1SUIfNZlOtXW-22" style="edgeStyle=orthogonalEdgeStyle;rounded=0;orthogonalLoop=1;jettySize=auto;html=1;entryX=0.5;entryY=0;entryDx=0;entryDy=0;" edge="1" parent="1" source="8I36rK1n1SUIfNZlOtXW-15" target="8I36rK1n1SUIfNZlOtXW-14">
          <mxGeometry relative="1" as="geometry" />
        </mxCell>
        <mxCell id="8I36rK1n1SUIfNZlOtXW-23" style="edgeStyle=orthogonalEdgeStyle;rounded=0;orthogonalLoop=1;jettySize=auto;html=1;entryX=0.5;entryY=0;entryDx=0;entryDy=0;" edge="1" parent="1" source="8I36rK1n1SUIfNZlOtXW-15" target="8I36rK1n1SUIfNZlOtXW-16">
          <mxGeometry relative="1" as="geometry" />
        </mxCell>
        <mxCell id="8I36rK1n1SUIfNZlOtXW-25" style="edgeStyle=orthogonalEdgeStyle;rounded=0;orthogonalLoop=1;jettySize=auto;html=1;entryX=0.5;entryY=0;entryDx=0;entryDy=0;" edge="1" parent="1" source="8I36rK1n1SUIfNZlOtXW-15" target="8I36rK1n1SUIfNZlOtXW-24">
          <mxGeometry relative="1" as="geometry" />
        </mxCell>
        <mxCell id="8I36rK1n1SUIfNZlOtXW-15" value="View challenge" style="rounded=0;whiteSpace=wrap;html=1;" vertex="1" parent="1">
          <mxGeometry x="-70" y="370" width="120" height="60" as="geometry" />
        </mxCell>
        <mxCell id="8I36rK1n1SUIfNZlOtXW-16" value="Start challenge" style="rounded=0;whiteSpace=wrap;html=1;" vertex="1" parent="1">
          <mxGeometry x="70" y="480" width="120" height="60" as="geometry" />
        </mxCell>
        <mxCell id="8I36rK1n1SUIfNZlOtXW-14" value="Send solution" style="rounded=0;whiteSpace=wrap;html=1;" vertex="1" parent="1">
          <mxGeometry x="-220" y="480" width="120" height="60" as="geometry" />
        </mxCell>
        <mxCell id="8I36rK1n1SUIfNZlOtXW-27" value="" style="edgeStyle=orthogonalEdgeStyle;rounded=0;orthogonalLoop=1;jettySize=auto;html=1;" edge="1" parent="1" source="8I36rK1n1SUIfNZlOtXW-24" target="8I36rK1n1SUIfNZlOtXW-26">
          <mxGeometry relative="1" as="geometry" />
        </mxCell>
        <mxCell id="8I36rK1n1SUIfNZlOtXW-24" value="View solutions" style="rounded=0;whiteSpace=wrap;html=1;" vertex="1" parent="1">
          <mxGeometry x="-70" y="480" width="120" height="60" as="geometry" />
        </mxCell>
        <mxCell id="8I36rK1n1SUIfNZlOtXW-32" style="edgeStyle=orthogonalEdgeStyle;rounded=0;orthogonalLoop=1;jettySize=auto;html=1;entryX=0.5;entryY=0;entryDx=0;entryDy=0;" edge="1" parent="1" source="8I36rK1n1SUIfNZlOtXW-26" target="8I36rK1n1SUIfNZlOtXW-28">
          <mxGeometry relative="1" as="geometry" />
        </mxCell>
        <mxCell id="8I36rK1n1SUIfNZlOtXW-33" style="edgeStyle=orthogonalEdgeStyle;rounded=0;orthogonalLoop=1;jettySize=auto;html=1;entryX=0.5;entryY=0;entryDx=0;entryDy=0;" edge="1" parent="1" source="8I36rK1n1SUIfNZlOtXW-26" target="8I36rK1n1SUIfNZlOtXW-31">
          <mxGeometry relative="1" as="geometry" />
        </mxCell>
        <mxCell id="8I36rK1n1SUIfNZlOtXW-26" value="View solution" style="rounded=0;whiteSpace=wrap;html=1;" vertex="1" parent="1">
          <mxGeometry x="-70" y="600" width="120" height="60" as="geometry" />
        </mxCell>
        <mxCell id="8I36rK1n1SUIfNZlOtXW-28" value="View website&amp;nbsp;&lt;div&gt;solution&lt;/div&gt;" style="rounded=0;whiteSpace=wrap;html=1;" vertex="1" parent="1">
          <mxGeometry x="-180" y="720" width="120" height="60" as="geometry" />
        </mxCell>
        <mxCell id="8I36rK1n1SUIfNZlOtXW-31" value="View the respository" style="rounded=0;whiteSpace=wrap;html=1;" vertex="1" parent="1">
          <mxGeometry x="30" y="720" width="120" height="60" as="geometry" />
        </mxCell>
        <mxCell id="8I36rK1n1SUIfNZlOtXW-34" value="Create question" style="rounded=0;whiteSpace=wrap;html=1;" vertex="1" parent="1">
          <mxGeometry x="260" y="370" width="120" height="60" as="geometry" />
        </mxCell>
        <mxCell id="8I36rK1n1SUIfNZlOtXW-35" value="View question" style="rounded=0;whiteSpace=wrap;html=1;" vertex="1" parent="1">
          <mxGeometry x="450" y="370" width="120" height="60" as="geometry" />
        </mxCell>
        <mxCell id="8I36rK1n1SUIfNZlOtXW-38" value="View project" style="rounded=0;whiteSpace=wrap;html=1;" vertex="1" parent="1">
          <mxGeometry x="650" y="370" width="120" height="60" as="geometry" />
        </mxCell>
        <mxCell id="8I36rK1n1SUIfNZlOtXW-45" value="" style="edgeStyle=orthogonalEdgeStyle;rounded=0;orthogonalLoop=1;jettySize=auto;html=1;" edge="1" parent="1" source="8I36rK1n1SUIfNZlOtXW-40" target="8I36rK1n1SUIfNZlOtXW-43">
          <mxGeometry relative="1" as="geometry" />
        </mxCell>
        <mxCell id="8I36rK1n1SUIfNZlOtXW-46" style="edgeStyle=orthogonalEdgeStyle;rounded=0;orthogonalLoop=1;jettySize=auto;html=1;entryX=0.5;entryY=0;entryDx=0;entryDy=0;" edge="1" parent="1" source="8I36rK1n1SUIfNZlOtXW-40" target="8I36rK1n1SUIfNZlOtXW-42">
          <mxGeometry relative="1" as="geometry" />
        </mxCell>
        <mxCell id="8I36rK1n1SUIfNZlOtXW-47" style="edgeStyle=orthogonalEdgeStyle;rounded=0;orthogonalLoop=1;jettySize=auto;html=1;" edge="1" parent="1" source="8I36rK1n1SUIfNZlOtXW-40" target="8I36rK1n1SUIfNZlOtXW-44">
          <mxGeometry relative="1" as="geometry" />
        </mxCell>
        <mxCell id="8I36rK1n1SUIfNZlOtXW-40" value="View profile" style="rounded=0;whiteSpace=wrap;html=1;" vertex="1" parent="1">
          <mxGeometry x="940" y="370" width="120" height="60" as="geometry" />
        </mxCell>
        <mxCell id="8I36rK1n1SUIfNZlOtXW-42" value="View project" style="rounded=0;whiteSpace=wrap;html=1;" vertex="1" parent="1">
          <mxGeometry x="780" y="490" width="120" height="60" as="geometry" />
        </mxCell>
        <mxCell id="8I36rK1n1SUIfNZlOtXW-43" value="View challenge" style="rounded=0;whiteSpace=wrap;html=1;" vertex="1" parent="1">
          <mxGeometry x="940" y="490" width="120" height="60" as="geometry" />
        </mxCell>
        <mxCell id="8I36rK1n1SUIfNZlOtXW-44" value="View question" style="rounded=0;whiteSpace=wrap;html=1;" vertex="1" parent="1">
          <mxGeometry x="1100" y="490" width="120" height="60" as="geometry" />
        </mxCell>
      </root>
    </mxGraphModel>
  </diagram>
  <diagram id="5EHCtcs9kEm-UWzT6FUK" name="Challenge">
    <mxGraphModel dx="2390" dy="1383" grid="1" gridSize="10" guides="1" tooltips="1" connect="1" arrows="1" fold="1" page="1" pageScale="1" pageWidth="827" pageHeight="1169" math="0" shadow="0">
      <root>
        <mxCell id="0" />
        <mxCell id="1" parent="0" />
        <mxCell id="z2NENGIwkrWMwn1xWQ19-3" value="" style="edgeStyle=orthogonalEdgeStyle;rounded=0;orthogonalLoop=1;jettySize=auto;html=1;" edge="1" parent="1" source="z2NENGIwkrWMwn1xWQ19-1" target="z2NENGIwkrWMwn1xWQ19-2">
          <mxGeometry relative="1" as="geometry" />
        </mxCell>
        <mxCell id="z2NENGIwkrWMwn1xWQ19-1" value="start" style="ellipse;whiteSpace=wrap;html=1;aspect=fixed;fillColor=#dae8fc;strokeColor=#6c8ebf;" vertex="1" parent="1">
          <mxGeometry x="400" y="40" width="80" height="80" as="geometry" />
        </mxCell>
        <mxCell id="z2NENGIwkrWMwn1xWQ19-7" value="" style="edgeStyle=orthogonalEdgeStyle;rounded=0;orthogonalLoop=1;jettySize=auto;html=1;" edge="1" parent="1" source="z2NENGIwkrWMwn1xWQ19-2" target="z2NENGIwkrWMwn1xWQ19-4">
          <mxGeometry relative="1" as="geometry" />
        </mxCell>
        <mxCell id="z2NENGIwkrWMwn1xWQ19-2" value="Page challenges" style="rounded=0;whiteSpace=wrap;html=1;" vertex="1" parent="1">
          <mxGeometry x="380" y="170" width="120" height="60" as="geometry" />
        </mxCell>
        <mxCell id="z2NENGIwkrWMwn1xWQ19-8" style="edgeStyle=orthogonalEdgeStyle;rounded=0;orthogonalLoop=1;jettySize=auto;html=1;entryX=0.5;entryY=0;entryDx=0;entryDy=0;" edge="1" parent="1" source="z2NENGIwkrWMwn1xWQ19-4" target="z2NENGIwkrWMwn1xWQ19-6">
          <mxGeometry relative="1" as="geometry">
            <Array as="points">
              <mxPoint x="440" y="390" />
              <mxPoint x="520" y="390" />
            </Array>
          </mxGeometry>
        </mxCell>
        <mxCell id="z2NENGIwkrWMwn1xWQ19-11" value="No" style="edgeLabel;html=1;align=center;verticalAlign=middle;resizable=0;points=[];" vertex="1" connectable="0" parent="z2NENGIwkrWMwn1xWQ19-8">
          <mxGeometry x="0.0041" y="-3" relative="1" as="geometry">
            <mxPoint x="15" y="27" as="offset" />
          </mxGeometry>
        </mxCell>
        <mxCell id="z2NENGIwkrWMwn1xWQ19-9" style="edgeStyle=orthogonalEdgeStyle;rounded=0;orthogonalLoop=1;jettySize=auto;html=1;entryX=0.5;entryY=0;entryDx=0;entryDy=0;" edge="1" parent="1" source="z2NENGIwkrWMwn1xWQ19-4" target="z2NENGIwkrWMwn1xWQ19-5">
          <mxGeometry relative="1" as="geometry">
            <Array as="points">
              <mxPoint x="440" y="390" />
              <mxPoint x="354" y="390" />
            </Array>
          </mxGeometry>
        </mxCell>
        <mxCell id="z2NENGIwkrWMwn1xWQ19-10" value="Yes" style="edgeLabel;html=1;align=center;verticalAlign=middle;resizable=0;points=[];" vertex="1" connectable="0" parent="z2NENGIwkrWMwn1xWQ19-9">
          <mxGeometry x="0.0242" y="-2" relative="1" as="geometry">
            <mxPoint x="-16" y="32" as="offset" />
          </mxGeometry>
        </mxCell>
        <mxCell id="z2NENGIwkrWMwn1xWQ19-4" value="Challenge filter?" style="rhombus;whiteSpace=wrap;html=1;" vertex="1" parent="1">
          <mxGeometry x="400" y="290" width="80" height="80" as="geometry" />
        </mxCell>
        <mxCell id="z2NENGIwkrWMwn1xWQ19-14" style="edgeStyle=orthogonalEdgeStyle;rounded=0;orthogonalLoop=1;jettySize=auto;html=1;entryX=0.5;entryY=0;entryDx=0;entryDy=0;" edge="1" parent="1" source="z2NENGIwkrWMwn1xWQ19-5" target="z2NENGIwkrWMwn1xWQ19-12">
          <mxGeometry relative="1" as="geometry" />
        </mxCell>
        <mxCell id="z2NENGIwkrWMwn1xWQ19-5" value="Filter challenge" style="rounded=0;whiteSpace=wrap;html=1;" vertex="1" parent="1">
          <mxGeometry x="294" y="460" width="120" height="60" as="geometry" />
        </mxCell>
        <mxCell id="z2NENGIwkrWMwn1xWQ19-13" style="edgeStyle=orthogonalEdgeStyle;rounded=0;orthogonalLoop=1;jettySize=auto;html=1;entryX=0.5;entryY=0;entryDx=0;entryDy=0;" edge="1" parent="1" source="z2NENGIwkrWMwn1xWQ19-6" target="z2NENGIwkrWMwn1xWQ19-12">
          <mxGeometry relative="1" as="geometry" />
        </mxCell>
        <mxCell id="z2NENGIwkrWMwn1xWQ19-6" value="View recente challenge" style="rounded=0;whiteSpace=wrap;html=1;" vertex="1" parent="1">
          <mxGeometry x="460" y="460" width="120" height="60" as="geometry" />
        </mxCell>
        <mxCell id="z2NENGIwkrWMwn1xWQ19-16" value="" style="edgeStyle=orthogonalEdgeStyle;rounded=0;orthogonalLoop=1;jettySize=auto;html=1;" edge="1" parent="1" source="z2NENGIwkrWMwn1xWQ19-12" target="z2NENGIwkrWMwn1xWQ19-15">
          <mxGeometry relative="1" as="geometry" />
        </mxCell>
        <mxCell id="z2NENGIwkrWMwn1xWQ19-12" value="View challenge" style="rounded=0;whiteSpace=wrap;html=1;" vertex="1" parent="1">
          <mxGeometry x="380" y="620" width="120" height="60" as="geometry" />
        </mxCell>
        <mxCell id="z2NENGIwkrWMwn1xWQ19-20" value="" style="edgeStyle=orthogonalEdgeStyle;rounded=0;orthogonalLoop=1;jettySize=auto;html=1;" edge="1" parent="1" source="z2NENGIwkrWMwn1xWQ19-15" target="z2NENGIwkrWMwn1xWQ19-18">
          <mxGeometry relative="1" as="geometry" />
        </mxCell>
        <mxCell id="z2NENGIwkrWMwn1xWQ19-24" value="View solutions" style="edgeLabel;html=1;align=center;verticalAlign=middle;resizable=0;points=[];" vertex="1" connectable="0" parent="z2NENGIwkrWMwn1xWQ19-20">
          <mxGeometry x="-0.1143" y="1" relative="1" as="geometry">
            <mxPoint as="offset" />
          </mxGeometry>
        </mxCell>
        <mxCell id="z2NENGIwkrWMwn1xWQ19-21" style="edgeStyle=orthogonalEdgeStyle;rounded=0;orthogonalLoop=1;jettySize=auto;html=1;entryX=0.5;entryY=0;entryDx=0;entryDy=0;" edge="1" parent="1" source="z2NENGIwkrWMwn1xWQ19-15" target="z2NENGIwkrWMwn1xWQ19-17">
          <mxGeometry relative="1" as="geometry">
            <Array as="points">
              <mxPoint x="440" y="830" />
              <mxPoint x="290" y="830" />
            </Array>
          </mxGeometry>
        </mxCell>
        <mxCell id="z2NENGIwkrWMwn1xWQ19-23" value="Send solution" style="edgeLabel;html=1;align=center;verticalAlign=middle;resizable=0;points=[];" vertex="1" connectable="0" parent="z2NENGIwkrWMwn1xWQ19-21">
          <mxGeometry x="0.5821" y="-1" relative="1" as="geometry">
            <mxPoint as="offset" />
          </mxGeometry>
        </mxCell>
        <mxCell id="z2NENGIwkrWMwn1xWQ19-22" style="edgeStyle=orthogonalEdgeStyle;rounded=0;orthogonalLoop=1;jettySize=auto;html=1;entryX=0.5;entryY=0;entryDx=0;entryDy=0;" edge="1" parent="1" source="z2NENGIwkrWMwn1xWQ19-15" target="z2NENGIwkrWMwn1xWQ19-19">
          <mxGeometry relative="1" as="geometry">
            <Array as="points">
              <mxPoint x="440" y="830" />
              <mxPoint x="590" y="830" />
            </Array>
          </mxGeometry>
        </mxCell>
        <mxCell id="z2NENGIwkrWMwn1xWQ19-25" value="Start challenge" style="edgeLabel;html=1;align=center;verticalAlign=middle;resizable=0;points=[];" vertex="1" connectable="0" parent="z2NENGIwkrWMwn1xWQ19-22">
          <mxGeometry x="0.5643" y="1" relative="1" as="geometry">
            <mxPoint x="-1" y="2" as="offset" />
          </mxGeometry>
        </mxCell>
        <mxCell id="z2NENGIwkrWMwn1xWQ19-15" value="start,&amp;nbsp;&lt;div&gt;view or send&lt;/div&gt;" style="rhombus;whiteSpace=wrap;html=1;" vertex="1" parent="1">
          <mxGeometry x="395" y="730" width="90" height="90" as="geometry" />
        </mxCell>
        <mxCell id="z2NENGIwkrWMwn1xWQ19-30" value="" style="edgeStyle=orthogonalEdgeStyle;rounded=0;orthogonalLoop=1;jettySize=auto;html=1;entryX=1.006;entryY=1.083;entryDx=0;entryDy=0;entryPerimeter=0;" edge="1" parent="1" source="z2NENGIwkrWMwn1xWQ19-17" target="z2NENGIwkrWMwn1xWQ19-27">
          <mxGeometry relative="1" as="geometry" />
        </mxCell>
        <mxCell id="z2NENGIwkrWMwn1xWQ19-17" value="send solution" style="rounded=0;whiteSpace=wrap;html=1;" vertex="1" parent="1">
          <mxGeometry x="230" y="910" width="120" height="60" as="geometry" />
        </mxCell>
        <mxCell id="y7rnwcJmTR9Pj7U2kY30-3" style="edgeStyle=orthogonalEdgeStyle;rounded=0;orthogonalLoop=1;jettySize=auto;html=1;entryX=0.5;entryY=0;entryDx=0;entryDy=0;" edge="1" parent="1" source="z2NENGIwkrWMwn1xWQ19-18" target="y7rnwcJmTR9Pj7U2kY30-2">
          <mxGeometry relative="1" as="geometry" />
        </mxCell>
        <mxCell id="z2NENGIwkrWMwn1xWQ19-18" value="view solutions" style="rounded=0;whiteSpace=wrap;html=1;" vertex="1" parent="1">
          <mxGeometry x="380" y="910" width="120" height="60" as="geometry" />
        </mxCell>
        <mxCell id="z2NENGIwkrWMwn1xWQ19-19" value="Start challenge" style="rounded=0;whiteSpace=wrap;html=1;" vertex="1" parent="1">
          <mxGeometry x="530" y="910" width="120" height="60" as="geometry" />
        </mxCell>
        <mxCell id="z2NENGIwkrWMwn1xWQ19-26" value="Data" style="swimlane;fontStyle=0;childLayout=stackLayout;horizontal=1;startSize=30;horizontalStack=0;resizeParent=1;resizeParentMax=0;resizeLast=0;collapsible=1;marginBottom=0;whiteSpace=wrap;html=1;" vertex="1" parent="1">
          <mxGeometry x="40" y="870" width="140" height="120" as="geometry" />
        </mxCell>
        <mxCell id="z2NENGIwkrWMwn1xWQ19-27" value="Project link (string)" style="text;strokeColor=none;fillColor=none;align=left;verticalAlign=middle;spacingLeft=4;spacingRight=4;overflow=hidden;points=[[0,0.5],[1,0.5]];portConstraint=eastwest;rotatable=0;whiteSpace=wrap;html=1;" vertex="1" parent="z2NENGIwkrWMwn1xWQ19-26">
          <mxGeometry y="30" width="140" height="30" as="geometry" />
        </mxCell>
        <mxCell id="z2NENGIwkrWMwn1xWQ19-28" value="Repository link (string)" style="text;strokeColor=none;fillColor=none;align=left;verticalAlign=middle;spacingLeft=4;spacingRight=4;overflow=hidden;points=[[0,0.5],[1,0.5]];portConstraint=eastwest;rotatable=0;whiteSpace=wrap;html=1;" vertex="1" parent="z2NENGIwkrWMwn1xWQ19-26">
          <mxGeometry y="60" width="140" height="30" as="geometry" />
        </mxCell>
        <mxCell id="z2NENGIwkrWMwn1xWQ19-29" value="challenge image (File)" style="text;strokeColor=none;fillColor=none;align=left;verticalAlign=middle;spacingLeft=4;spacingRight=4;overflow=hidden;points=[[0,0.5],[1,0.5]];portConstraint=eastwest;rotatable=0;whiteSpace=wrap;html=1;" vertex="1" parent="z2NENGIwkrWMwn1xWQ19-26">
          <mxGeometry y="90" width="140" height="30" as="geometry" />
        </mxCell>
        <mxCell id="y7rnwcJmTR9Pj7U2kY30-11" style="edgeStyle=orthogonalEdgeStyle;rounded=0;orthogonalLoop=1;jettySize=auto;html=1;" edge="1" parent="1" source="y7rnwcJmTR9Pj7U2kY30-1" target="y7rnwcJmTR9Pj7U2kY30-9">
          <mxGeometry relative="1" as="geometry" />
        </mxCell>
        <mxCell id="y7rnwcJmTR9Pj7U2kY30-1" value="View respository" style="rounded=0;whiteSpace=wrap;html=1;" vertex="1" parent="1">
          <mxGeometry x="470" y="1220" width="120" height="60" as="geometry" />
        </mxCell>
        <mxCell id="y7rnwcJmTR9Pj7U2kY30-4" style="edgeStyle=orthogonalEdgeStyle;rounded=0;orthogonalLoop=1;jettySize=auto;html=1;entryX=0.5;entryY=0;entryDx=0;entryDy=0;" edge="1" parent="1" source="y7rnwcJmTR9Pj7U2kY30-2" target="y7rnwcJmTR9Pj7U2kY30-1">
          <mxGeometry relative="1" as="geometry">
            <Array as="points">
              <mxPoint x="440" y="1130" />
              <mxPoint x="530" y="1130" />
            </Array>
          </mxGeometry>
        </mxCell>
        <mxCell id="y7rnwcJmTR9Pj7U2kY30-8" value="&lt;span style=&quot;font-size: 12px; text-wrap-mode: wrap; background-color: rgb(251, 251, 251);&quot;&gt;View respository&lt;/span&gt;" style="edgeLabel;html=1;align=center;verticalAlign=middle;resizable=0;points=[];" vertex="1" connectable="0" parent="y7rnwcJmTR9Pj7U2kY30-4">
          <mxGeometry x="0.5742" relative="1" as="geometry">
            <mxPoint y="-7" as="offset" />
          </mxGeometry>
        </mxCell>
        <mxCell id="y7rnwcJmTR9Pj7U2kY30-6" style="edgeStyle=orthogonalEdgeStyle;rounded=0;orthogonalLoop=1;jettySize=auto;html=1;entryX=0.5;entryY=0;entryDx=0;entryDy=0;" edge="1" parent="1" source="y7rnwcJmTR9Pj7U2kY30-2" target="y7rnwcJmTR9Pj7U2kY30-5">
          <mxGeometry relative="1" as="geometry">
            <Array as="points">
              <mxPoint x="440" y="1130" />
              <mxPoint x="350" y="1130" />
            </Array>
          </mxGeometry>
        </mxCell>
        <mxCell id="y7rnwcJmTR9Pj7U2kY30-7" value="&lt;span style=&quot;font-size: 12px; text-wrap-mode: wrap; background-color: rgb(251, 251, 251);&quot;&gt;View webSite&lt;/span&gt;" style="edgeLabel;html=1;align=center;verticalAlign=middle;resizable=0;points=[];" vertex="1" connectable="0" parent="y7rnwcJmTR9Pj7U2kY30-6">
          <mxGeometry x="0.5611" y="3" relative="1" as="geometry">
            <mxPoint x="-3" y="-7" as="offset" />
          </mxGeometry>
        </mxCell>
        <mxCell id="y7rnwcJmTR9Pj7U2kY30-2" value="View webSite, View repository" style="rhombus;whiteSpace=wrap;html=1;" vertex="1" parent="1">
          <mxGeometry x="390" y="1010" width="100" height="100" as="geometry" />
        </mxCell>
        <mxCell id="y7rnwcJmTR9Pj7U2kY30-12" style="edgeStyle=orthogonalEdgeStyle;rounded=0;orthogonalLoop=1;jettySize=auto;html=1;entryX=0.5;entryY=0;entryDx=0;entryDy=0;" edge="1" parent="1" source="y7rnwcJmTR9Pj7U2kY30-5" target="y7rnwcJmTR9Pj7U2kY30-9">
          <mxGeometry relative="1" as="geometry" />
        </mxCell>
        <mxCell id="y7rnwcJmTR9Pj7U2kY30-5" value="View webSite" style="rounded=0;whiteSpace=wrap;html=1;" vertex="1" parent="1">
          <mxGeometry x="290" y="1220" width="120" height="60" as="geometry" />
        </mxCell>
        <mxCell id="y7rnwcJmTR9Pj7U2kY30-9" value="End" style="ellipse;whiteSpace=wrap;html=1;aspect=fixed;fillColor=#f8cecc;strokeColor=#b85450;" vertex="1" parent="1">
          <mxGeometry x="400" y="1400" width="80" height="80" as="geometry" />
        </mxCell>
      </root>
    </mxGraphModel>
  </diagram>
  <diagram id="496m7DnQk6Kbzwh4w0HC" name="Help">
    <mxGraphModel dx="4924" dy="2371" grid="1" gridSize="10" guides="1" tooltips="1" connect="1" arrows="1" fold="1" page="1" pageScale="1" pageWidth="827" pageHeight="1169" math="0" shadow="0">
      <root>
        <mxCell id="0" />
        <mxCell id="1" parent="0" />
        <mxCell id="ui3TxtWiIYnr53vjg075-3" value="" style="edgeStyle=orthogonalEdgeStyle;rounded=0;orthogonalLoop=1;jettySize=auto;html=1;" edge="1" parent="1" source="ui3TxtWiIYnr53vjg075-1" target="ui3TxtWiIYnr53vjg075-2">
          <mxGeometry relative="1" as="geometry" />
        </mxCell>
        <mxCell id="ui3TxtWiIYnr53vjg075-1" value="Start" style="ellipse;whiteSpace=wrap;html=1;aspect=fixed;fillColor=#dae8fc;strokeColor=#6c8ebf;" vertex="1" parent="1">
          <mxGeometry x="420" y="130" width="80" height="80" as="geometry" />
        </mxCell>
        <mxCell id="E49InI55KO1_vWpOBqb0-13" value="" style="edgeStyle=orthogonalEdgeStyle;rounded=0;orthogonalLoop=1;jettySize=auto;html=1;" edge="1" parent="1" source="ui3TxtWiIYnr53vjg075-2" target="E49InI55KO1_vWpOBqb0-7">
          <mxGeometry relative="1" as="geometry" />
        </mxCell>
        <mxCell id="ui3TxtWiIYnr53vjg075-2" value="Page Help" style="rounded=0;whiteSpace=wrap;html=1;" vertex="1" parent="1">
          <mxGeometry x="400" y="260" width="120" height="60" as="geometry" />
        </mxCell>
        <mxCell id="E49InI55KO1_vWpOBqb0-3" style="edgeStyle=orthogonalEdgeStyle;rounded=0;orthogonalLoop=1;jettySize=auto;html=1;entryX=0.5;entryY=0;entryDx=0;entryDy=0;" edge="1" parent="1" source="E49InI55KO1_vWpOBqb0-7" target="E49InI55KO1_vWpOBqb0-11">
          <mxGeometry relative="1" as="geometry">
            <Array as="points">
              <mxPoint x="460" y="460" />
              <mxPoint x="540" y="460" />
            </Array>
          </mxGeometry>
        </mxCell>
        <mxCell id="E49InI55KO1_vWpOBqb0-5" style="edgeStyle=orthogonalEdgeStyle;rounded=0;orthogonalLoop=1;jettySize=auto;html=1;entryX=0.5;entryY=0;entryDx=0;entryDy=0;" edge="1" parent="1" source="E49InI55KO1_vWpOBqb0-7" target="E49InI55KO1_vWpOBqb0-9">
          <mxGeometry relative="1" as="geometry">
            <Array as="points">
              <mxPoint x="460" y="460" />
              <mxPoint x="374" y="460" />
            </Array>
          </mxGeometry>
        </mxCell>
        <mxCell id="3ncYa1L-NdRY1o7BDm7d-3" style="edgeStyle=orthogonalEdgeStyle;rounded=0;orthogonalLoop=1;jettySize=auto;html=1;entryX=0.5;entryY=0;entryDx=0;entryDy=0;" edge="1" parent="1" source="E49InI55KO1_vWpOBqb0-7" target="3ncYa1L-NdRY1o7BDm7d-2">
          <mxGeometry relative="1" as="geometry" />
        </mxCell>
        <mxCell id="3ncYa1L-NdRY1o7BDm7d-4" style="edgeStyle=orthogonalEdgeStyle;rounded=0;orthogonalLoop=1;jettySize=auto;html=1;entryX=0.5;entryY=0;entryDx=0;entryDy=0;" edge="1" parent="1" source="E49InI55KO1_vWpOBqb0-7" target="3ncYa1L-NdRY1o7BDm7d-1">
          <mxGeometry relative="1" as="geometry" />
        </mxCell>
        <mxCell id="E49InI55KO1_vWpOBqb0-7" value="decision-making" style="rhombus;whiteSpace=wrap;html=1;" vertex="1" parent="1">
          <mxGeometry x="420" y="360" width="80" height="80" as="geometry" />
        </mxCell>
        <mxCell id="E49InI55KO1_vWpOBqb0-8" style="edgeStyle=orthogonalEdgeStyle;rounded=0;orthogonalLoop=1;jettySize=auto;html=1;entryX=0.5;entryY=0;entryDx=0;entryDy=0;" edge="1" parent="1" source="E49InI55KO1_vWpOBqb0-9" target="E49InI55KO1_vWpOBqb0-12">
          <mxGeometry relative="1" as="geometry" />
        </mxCell>
        <mxCell id="E49InI55KO1_vWpOBqb0-9" value="Filter question" style="rounded=0;whiteSpace=wrap;html=1;" vertex="1" parent="1">
          <mxGeometry x="314" y="530" width="120" height="60" as="geometry" />
        </mxCell>
        <mxCell id="E49InI55KO1_vWpOBqb0-10" style="edgeStyle=orthogonalEdgeStyle;rounded=0;orthogonalLoop=1;jettySize=auto;html=1;entryX=0.5;entryY=0;entryDx=0;entryDy=0;" edge="1" parent="1" source="E49InI55KO1_vWpOBqb0-11" target="E49InI55KO1_vWpOBqb0-12">
          <mxGeometry relative="1" as="geometry" />
        </mxCell>
        <mxCell id="E49InI55KO1_vWpOBqb0-11" value="View recente&amp;nbsp;&lt;div&gt;question&lt;/div&gt;" style="rounded=0;whiteSpace=wrap;html=1;" vertex="1" parent="1">
          <mxGeometry x="480" y="530" width="120" height="60" as="geometry" />
        </mxCell>
        <mxCell id="3ncYa1L-NdRY1o7BDm7d-7" value="" style="edgeStyle=orthogonalEdgeStyle;rounded=0;orthogonalLoop=1;jettySize=auto;html=1;" edge="1" parent="1" source="E49InI55KO1_vWpOBqb0-12" target="3ncYa1L-NdRY1o7BDm7d-6">
          <mxGeometry relative="1" as="geometry" />
        </mxCell>
        <mxCell id="E49InI55KO1_vWpOBqb0-12" value="View question" style="rounded=0;whiteSpace=wrap;html=1;" vertex="1" parent="1">
          <mxGeometry x="400" y="690" width="120" height="60" as="geometry" />
        </mxCell>
        <mxCell id="3ncYa1L-NdRY1o7BDm7d-206" value="" style="edgeStyle=orthogonalEdgeStyle;rounded=0;orthogonalLoop=1;jettySize=auto;html=1;" edge="1" parent="1" source="3ncYa1L-NdRY1o7BDm7d-1" target="3ncYa1L-NdRY1o7BDm7d-195">
          <mxGeometry relative="1" as="geometry" />
        </mxCell>
        <mxCell id="3ncYa1L-NdRY1o7BDm7d-1" value="Create question" style="rounded=0;whiteSpace=wrap;html=1;" vertex="1" parent="1">
          <mxGeometry x="1030" y="525" width="120" height="60" as="geometry" />
        </mxCell>
        <mxCell id="3ncYa1L-NdRY1o7BDm7d-139" value="" style="edgeStyle=orthogonalEdgeStyle;rounded=0;orthogonalLoop=1;jettySize=auto;html=1;" edge="1" parent="1" source="3ncYa1L-NdRY1o7BDm7d-2" target="3ncYa1L-NdRY1o7BDm7d-138">
          <mxGeometry relative="1" as="geometry" />
        </mxCell>
        <mxCell id="3ncYa1L-NdRY1o7BDm7d-2" value="View my question" style="rounded=0;whiteSpace=wrap;html=1;" vertex="1" parent="1">
          <mxGeometry x="-200" y="525" width="120" height="60" as="geometry" />
        </mxCell>
        <mxCell id="3ncYa1L-NdRY1o7BDm7d-114" style="edgeStyle=orthogonalEdgeStyle;rounded=0;orthogonalLoop=1;jettySize=auto;html=1;entryX=0.5;entryY=0;entryDx=0;entryDy=0;" edge="1" parent="1" source="3ncYa1L-NdRY1o7BDm7d-5" target="3ncYa1L-NdRY1o7BDm7d-95">
          <mxGeometry relative="1" as="geometry">
            <Array as="points">
              <mxPoint x="460" y="1330" />
              <mxPoint x="615" y="1330" />
            </Array>
          </mxGeometry>
        </mxCell>
        <mxCell id="3ncYa1L-NdRY1o7BDm7d-133" style="edgeStyle=orthogonalEdgeStyle;rounded=0;orthogonalLoop=1;jettySize=auto;html=1;entryX=0.5;entryY=0;entryDx=0;entryDy=0;" edge="1" parent="1" source="3ncYa1L-NdRY1o7BDm7d-5" target="3ncYa1L-NdRY1o7BDm7d-130">
          <mxGeometry relative="1" as="geometry" />
        </mxCell>
        <mxCell id="3ncYa1L-NdRY1o7BDm7d-5" value="Answer question" style="rounded=0;whiteSpace=wrap;html=1;" vertex="1" parent="1">
          <mxGeometry x="400" y="1240" width="120" height="60" as="geometry" />
        </mxCell>
        <mxCell id="3ncYa1L-NdRY1o7BDm7d-22" value="" style="edgeStyle=orthogonalEdgeStyle;rounded=0;orthogonalLoop=1;jettySize=auto;html=1;" edge="1" parent="1" source="3ncYa1L-NdRY1o7BDm7d-6" target="3ncYa1L-NdRY1o7BDm7d-21">
          <mxGeometry relative="1" as="geometry" />
        </mxCell>
        <mxCell id="3ncYa1L-NdRY1o7BDm7d-34" style="edgeStyle=orthogonalEdgeStyle;rounded=0;orthogonalLoop=1;jettySize=auto;html=1;entryX=0.5;entryY=0;entryDx=0;entryDy=0;" edge="1" parent="1" source="3ncYa1L-NdRY1o7BDm7d-6" target="3ncYa1L-NdRY1o7BDm7d-33">
          <mxGeometry relative="1" as="geometry" />
        </mxCell>
        <mxCell id="3ncYa1L-NdRY1o7BDm7d-6" value="Best answer,&lt;div&gt;response&lt;/div&gt;" style="rhombus;whiteSpace=wrap;html=1;" vertex="1" parent="1">
          <mxGeometry x="420" y="800" width="80" height="80" as="geometry" />
        </mxCell>
        <mxCell id="3ncYa1L-NdRY1o7BDm7d-113" value="" style="edgeStyle=orthogonalEdgeStyle;rounded=0;orthogonalLoop=1;jettySize=auto;html=1;" edge="1" parent="1" source="3ncYa1L-NdRY1o7BDm7d-8" target="3ncYa1L-NdRY1o7BDm7d-95">
          <mxGeometry relative="1" as="geometry" />
        </mxCell>
        <mxCell id="3ncYa1L-NdRY1o7BDm7d-8" value="Evaluate answers" style="rounded=0;whiteSpace=wrap;html=1;" vertex="1" parent="1">
          <mxGeometry x="555" y="1240" width="120" height="60" as="geometry" />
        </mxCell>
        <mxCell id="3ncYa1L-NdRY1o7BDm7d-123" style="edgeStyle=orthogonalEdgeStyle;rounded=0;orthogonalLoop=1;jettySize=auto;html=1;entryX=0.5;entryY=0;entryDx=0;entryDy=0;" edge="1" parent="1" source="3ncYa1L-NdRY1o7BDm7d-9" target="3ncYa1L-NdRY1o7BDm7d-38">
          <mxGeometry relative="1" as="geometry">
            <Array as="points">
              <mxPoint x="160" y="1430" />
              <mxPoint x="-20" y="1430" />
            </Array>
          </mxGeometry>
        </mxCell>
        <mxCell id="3ncYa1L-NdRY1o7BDm7d-9" value="Comment reply" style="rounded=0;whiteSpace=wrap;html=1;" vertex="1" parent="1">
          <mxGeometry x="100" y="1240" width="120" height="60" as="geometry" />
        </mxCell>
        <mxCell id="3ncYa1L-NdRY1o7BDm7d-124" style="edgeStyle=orthogonalEdgeStyle;rounded=0;orthogonalLoop=1;jettySize=auto;html=1;entryX=0.5;entryY=0;entryDx=0;entryDy=0;" edge="1" parent="1" source="3ncYa1L-NdRY1o7BDm7d-10" target="3ncYa1L-NdRY1o7BDm7d-38">
          <mxGeometry relative="1" as="geometry">
            <Array as="points">
              <mxPoint x="308" y="1430" />
              <mxPoint x="-20" y="1430" />
            </Array>
          </mxGeometry>
        </mxCell>
        <mxCell id="3ncYa1L-NdRY1o7BDm7d-10" value="comment reply comment" style="rounded=0;whiteSpace=wrap;html=1;" vertex="1" parent="1">
          <mxGeometry x="247.5" y="1240" width="120" height="60" as="geometry" />
        </mxCell>
        <mxCell id="3ncYa1L-NdRY1o7BDm7d-116" style="edgeStyle=orthogonalEdgeStyle;rounded=0;orthogonalLoop=1;jettySize=auto;html=1;entryX=0.5;entryY=0;entryDx=0;entryDy=0;" edge="1" parent="1" source="3ncYa1L-NdRY1o7BDm7d-15" target="3ncYa1L-NdRY1o7BDm7d-95">
          <mxGeometry relative="1" as="geometry">
            <Array as="points">
              <mxPoint x="763" y="1330" />
              <mxPoint x="615" y="1330" />
            </Array>
          </mxGeometry>
        </mxCell>
        <mxCell id="3ncYa1L-NdRY1o7BDm7d-15" value="Evaluate a comment" style="rounded=0;whiteSpace=wrap;html=1;" vertex="1" parent="1">
          <mxGeometry x="702.5" y="1240" width="120" height="60" as="geometry" />
        </mxCell>
        <mxCell id="3ncYa1L-NdRY1o7BDm7d-27" value="" style="edgeStyle=orthogonalEdgeStyle;rounded=0;orthogonalLoop=1;jettySize=auto;html=1;" edge="1" parent="1" source="3ncYa1L-NdRY1o7BDm7d-21" target="3ncYa1L-NdRY1o7BDm7d-23">
          <mxGeometry relative="1" as="geometry">
            <Array as="points">
              <mxPoint x="308" y="1010" />
              <mxPoint x="460" y="1010" />
            </Array>
          </mxGeometry>
        </mxCell>
        <mxCell id="3ncYa1L-NdRY1o7BDm7d-21" value="View best answer" style="rounded=0;whiteSpace=wrap;html=1;" vertex="1" parent="1">
          <mxGeometry x="247.5" y="900" width="120" height="60" as="geometry" />
        </mxCell>
        <mxCell id="3ncYa1L-NdRY1o7BDm7d-103" style="edgeStyle=orthogonalEdgeStyle;rounded=0;orthogonalLoop=1;jettySize=auto;html=1;entryX=0.5;entryY=0;entryDx=0;entryDy=0;" edge="1" parent="1" source="3ncYa1L-NdRY1o7BDm7d-23" target="3ncYa1L-NdRY1o7BDm7d-5">
          <mxGeometry relative="1" as="geometry" />
        </mxCell>
        <mxCell id="3ncYa1L-NdRY1o7BDm7d-104" style="edgeStyle=orthogonalEdgeStyle;rounded=0;orthogonalLoop=1;jettySize=auto;html=1;entryX=0.5;entryY=0;entryDx=0;entryDy=0;" edge="1" parent="1" source="3ncYa1L-NdRY1o7BDm7d-23" target="3ncYa1L-NdRY1o7BDm7d-8">
          <mxGeometry relative="1" as="geometry">
            <Array as="points">
              <mxPoint x="460" y="1170" />
              <mxPoint x="615" y="1170" />
            </Array>
          </mxGeometry>
        </mxCell>
        <mxCell id="3ncYa1L-NdRY1o7BDm7d-105" style="edgeStyle=orthogonalEdgeStyle;rounded=0;orthogonalLoop=1;jettySize=auto;html=1;entryX=0.5;entryY=0;entryDx=0;entryDy=0;" edge="1" parent="1" source="3ncYa1L-NdRY1o7BDm7d-23" target="3ncYa1L-NdRY1o7BDm7d-15">
          <mxGeometry relative="1" as="geometry">
            <Array as="points">
              <mxPoint x="460" y="1170" />
              <mxPoint x="763" y="1170" />
            </Array>
          </mxGeometry>
        </mxCell>
        <mxCell id="3ncYa1L-NdRY1o7BDm7d-106" style="edgeStyle=orthogonalEdgeStyle;rounded=0;orthogonalLoop=1;jettySize=auto;html=1;entryX=0.5;entryY=0;entryDx=0;entryDy=0;" edge="1" parent="1" source="3ncYa1L-NdRY1o7BDm7d-23" target="3ncYa1L-NdRY1o7BDm7d-10">
          <mxGeometry relative="1" as="geometry">
            <Array as="points">
              <mxPoint x="460" y="1170" />
              <mxPoint x="308" y="1170" />
            </Array>
          </mxGeometry>
        </mxCell>
        <mxCell id="3ncYa1L-NdRY1o7BDm7d-107" style="edgeStyle=orthogonalEdgeStyle;rounded=0;orthogonalLoop=1;jettySize=auto;html=1;entryX=0.5;entryY=0;entryDx=0;entryDy=0;" edge="1" parent="1" source="3ncYa1L-NdRY1o7BDm7d-23" target="3ncYa1L-NdRY1o7BDm7d-9">
          <mxGeometry relative="1" as="geometry">
            <Array as="points">
              <mxPoint x="460" y="1170" />
              <mxPoint x="160" y="1170" />
            </Array>
          </mxGeometry>
        </mxCell>
        <mxCell id="3ncYa1L-NdRY1o7BDm7d-23" value="decision-making" style="rhombus;whiteSpace=wrap;html=1;" vertex="1" parent="1">
          <mxGeometry x="420" y="1040" width="80" height="80" as="geometry" />
        </mxCell>
        <mxCell id="3ncYa1L-NdRY1o7BDm7d-35" style="edgeStyle=orthogonalEdgeStyle;rounded=0;orthogonalLoop=1;jettySize=auto;html=1;entryX=0.5;entryY=0;entryDx=0;entryDy=0;" edge="1" parent="1" source="3ncYa1L-NdRY1o7BDm7d-33" target="3ncYa1L-NdRY1o7BDm7d-23">
          <mxGeometry relative="1" as="geometry">
            <Array as="points">
              <mxPoint x="590" y="1010" />
              <mxPoint x="460" y="1010" />
            </Array>
          </mxGeometry>
        </mxCell>
        <mxCell id="3ncYa1L-NdRY1o7BDm7d-33" value="View answers" style="rounded=0;whiteSpace=wrap;html=1;" vertex="1" parent="1">
          <mxGeometry x="530" y="900" width="120" height="60" as="geometry" />
        </mxCell>
        <mxCell id="3ncYa1L-NdRY1o7BDm7d-45" style="edgeStyle=orthogonalEdgeStyle;rounded=0;orthogonalLoop=1;jettySize=auto;html=1;entryX=0.5;entryY=0;entryDx=0;entryDy=0;" edge="1" parent="1" source="3ncYa1L-NdRY1o7BDm7d-38" target="3ncYa1L-NdRY1o7BDm7d-42">
          <mxGeometry relative="1" as="geometry">
            <Array as="points">
              <mxPoint x="-20" y="1650" />
              <mxPoint x="-340" y="1650" />
            </Array>
          </mxGeometry>
        </mxCell>
        <mxCell id="3ncYa1L-NdRY1o7BDm7d-63" style="edgeStyle=orthogonalEdgeStyle;rounded=0;orthogonalLoop=1;jettySize=auto;html=1;entryX=0.5;entryY=0;entryDx=0;entryDy=0;" edge="1" parent="1" source="3ncYa1L-NdRY1o7BDm7d-38" target="3ncYa1L-NdRY1o7BDm7d-62">
          <mxGeometry relative="1" as="geometry" />
        </mxCell>
        <mxCell id="3ncYa1L-NdRY1o7BDm7d-65" style="edgeStyle=orthogonalEdgeStyle;rounded=0;orthogonalLoop=1;jettySize=auto;html=1;entryX=0.5;entryY=0;entryDx=0;entryDy=0;" edge="1" parent="1" source="3ncYa1L-NdRY1o7BDm7d-38" target="3ncYa1L-NdRY1o7BDm7d-64">
          <mxGeometry relative="1" as="geometry">
            <Array as="points">
              <mxPoint x="-20" y="1650" />
              <mxPoint x="150" y="1650" />
            </Array>
          </mxGeometry>
        </mxCell>
        <mxCell id="3ncYa1L-NdRY1o7BDm7d-68" value="Yes" style="edgeLabel;html=1;align=center;verticalAlign=middle;resizable=0;points=[];" vertex="1" connectable="0" parent="3ncYa1L-NdRY1o7BDm7d-65">
          <mxGeometry x="-0.8178" y="-1" relative="1" as="geometry">
            <mxPoint as="offset" />
          </mxGeometry>
        </mxCell>
        <mxCell id="3ncYa1L-NdRY1o7BDm7d-125" style="edgeStyle=orthogonalEdgeStyle;rounded=0;orthogonalLoop=1;jettySize=auto;html=1;entryX=0;entryY=0.5;entryDx=0;entryDy=0;" edge="1" parent="1" source="3ncYa1L-NdRY1o7BDm7d-38" target="3ncYa1L-NdRY1o7BDm7d-54">
          <mxGeometry relative="1" as="geometry">
            <Array as="points">
              <mxPoint x="90" y="1552" />
              <mxPoint x="90" y="1552" />
            </Array>
          </mxGeometry>
        </mxCell>
        <mxCell id="3ncYa1L-NdRY1o7BDm7d-126" value="No" style="edgeLabel;html=1;align=center;verticalAlign=middle;resizable=0;points=[];" vertex="1" connectable="0" parent="3ncYa1L-NdRY1o7BDm7d-125">
          <mxGeometry x="-0.8495" y="-2" relative="1" as="geometry">
            <mxPoint y="-2" as="offset" />
          </mxGeometry>
        </mxCell>
        <mxCell id="3ncYa1L-NdRY1o7BDm7d-38" value="logged in?" style="rhombus;whiteSpace=wrap;html=1;" vertex="1" parent="1">
          <mxGeometry x="-60" y="1512" width="80" height="80" as="geometry" />
        </mxCell>
        <mxCell id="3ncYa1L-NdRY1o7BDm7d-110" style="edgeStyle=orthogonalEdgeStyle;rounded=0;orthogonalLoop=1;jettySize=auto;html=1;entryX=0.5;entryY=0;entryDx=0;entryDy=0;" edge="1" parent="1" source="3ncYa1L-NdRY1o7BDm7d-42" target="3ncYa1L-NdRY1o7BDm7d-78">
          <mxGeometry relative="1" as="geometry">
            <Array as="points">
              <mxPoint x="-340" y="1860" />
              <mxPoint x="-20" y="1860" />
            </Array>
          </mxGeometry>
        </mxCell>
        <mxCell id="3ncYa1L-NdRY1o7BDm7d-42" value="Create comment" style="rounded=0;whiteSpace=wrap;html=1;" vertex="1" parent="1">
          <mxGeometry x="-400" y="1720" width="120" height="60" as="geometry" />
        </mxCell>
        <mxCell id="3ncYa1L-NdRY1o7BDm7d-74" value="" style="edgeStyle=orthogonalEdgeStyle;rounded=0;orthogonalLoop=1;jettySize=auto;html=1;startArrow=block;startFill=1;endArrow=none;endFill=0;" edge="1" parent="1" source="3ncYa1L-NdRY1o7BDm7d-50" target="3ncYa1L-NdRY1o7BDm7d-62">
          <mxGeometry relative="1" as="geometry" />
        </mxCell>
        <mxCell id="3ncYa1L-NdRY1o7BDm7d-75" value="" style="edgeStyle=orthogonalEdgeStyle;rounded=0;orthogonalLoop=1;jettySize=auto;html=1;endArrow=none;endFill=0;startArrow=block;startFill=1;" edge="1" parent="1" source="3ncYa1L-NdRY1o7BDm7d-50" target="3ncYa1L-NdRY1o7BDm7d-42">
          <mxGeometry relative="1" as="geometry" />
        </mxCell>
        <mxCell id="3ncYa1L-NdRY1o7BDm7d-50" value="Create or edit" style="swimlane;fontStyle=0;childLayout=stackLayout;horizontal=1;startSize=30;horizontalStack=0;resizeParent=1;resizeParentMax=0;resizeLast=0;collapsible=1;marginBottom=0;whiteSpace=wrap;html=1;" vertex="1" parent="1">
          <mxGeometry x="-246" y="1690" width="140" height="120" as="geometry" />
        </mxCell>
        <mxCell id="3ncYa1L-NdRY1o7BDm7d-51" value="Question id (Number)" style="text;strokeColor=none;fillColor=none;align=left;verticalAlign=middle;spacingLeft=4;spacingRight=4;overflow=hidden;points=[[0,0.5],[1,0.5]];portConstraint=eastwest;rotatable=0;whiteSpace=wrap;html=1;" vertex="1" parent="3ncYa1L-NdRY1o7BDm7d-50">
          <mxGeometry y="30" width="140" height="30" as="geometry" />
        </mxCell>
        <mxCell id="3ncYa1L-NdRY1o7BDm7d-52" value="Answer id (Number)" style="text;strokeColor=none;fillColor=none;align=left;verticalAlign=middle;spacingLeft=4;spacingRight=4;overflow=hidden;points=[[0,0.5],[1,0.5]];portConstraint=eastwest;rotatable=0;whiteSpace=wrap;html=1;" vertex="1" parent="3ncYa1L-NdRY1o7BDm7d-50">
          <mxGeometry y="60" width="140" height="30" as="geometry" />
        </mxCell>
        <mxCell id="3ncYa1L-NdRY1o7BDm7d-69" value="Comment (string)" style="text;strokeColor=none;fillColor=none;align=left;verticalAlign=middle;spacingLeft=4;spacingRight=4;overflow=hidden;points=[[0,0.5],[1,0.5]];portConstraint=eastwest;rotatable=0;whiteSpace=wrap;html=1;" vertex="1" parent="3ncYa1L-NdRY1o7BDm7d-50">
          <mxGeometry y="90" width="140" height="30" as="geometry" />
        </mxCell>
        <mxCell id="3ncYa1L-NdRY1o7BDm7d-61" value="" style="edgeStyle=orthogonalEdgeStyle;rounded=0;orthogonalLoop=1;jettySize=auto;html=1;" edge="1" parent="1" source="3ncYa1L-NdRY1o7BDm7d-54" target="3ncYa1L-NdRY1o7BDm7d-57">
          <mxGeometry relative="1" as="geometry" />
        </mxCell>
        <mxCell id="3ncYa1L-NdRY1o7BDm7d-54" value="Login" style="rounded=0;whiteSpace=wrap;html=1;" vertex="1" parent="1">
          <mxGeometry x="556" y="1522" width="120" height="60" as="geometry" />
        </mxCell>
        <mxCell id="3ncYa1L-NdRY1o7BDm7d-91" style="edgeStyle=orthogonalEdgeStyle;rounded=0;orthogonalLoop=1;jettySize=auto;html=1;" edge="1" parent="1" source="3ncYa1L-NdRY1o7BDm7d-56" target="3ncYa1L-NdRY1o7BDm7d-88">
          <mxGeometry relative="1" as="geometry" />
        </mxCell>
        <mxCell id="3ncYa1L-NdRY1o7BDm7d-56" value="Login" style="rounded=0;whiteSpace=wrap;html=1;" vertex="1" parent="1">
          <mxGeometry x="453" y="1772" width="120" height="60" as="geometry" />
        </mxCell>
        <mxCell id="3ncYa1L-NdRY1o7BDm7d-59" style="edgeStyle=orthogonalEdgeStyle;rounded=0;orthogonalLoop=1;jettySize=auto;html=1;entryX=0.5;entryY=0;entryDx=0;entryDy=0;" edge="1" parent="1" source="3ncYa1L-NdRY1o7BDm7d-57" target="3ncYa1L-NdRY1o7BDm7d-56">
          <mxGeometry relative="1" as="geometry" />
        </mxCell>
        <mxCell id="3ncYa1L-NdRY1o7BDm7d-60" style="edgeStyle=orthogonalEdgeStyle;rounded=0;orthogonalLoop=1;jettySize=auto;html=1;entryX=0.5;entryY=0;entryDx=0;entryDy=0;" edge="1" parent="1" source="3ncYa1L-NdRY1o7BDm7d-57" target="3ncYa1L-NdRY1o7BDm7d-58">
          <mxGeometry relative="1" as="geometry" />
        </mxCell>
        <mxCell id="3ncYa1L-NdRY1o7BDm7d-57" value="do you have an account?" style="rhombus;whiteSpace=wrap;html=1;" vertex="1" parent="1">
          <mxGeometry x="566" y="1622" width="100" height="100" as="geometry" />
        </mxCell>
        <mxCell id="3ncYa1L-NdRY1o7BDm7d-92" style="edgeStyle=orthogonalEdgeStyle;rounded=0;orthogonalLoop=1;jettySize=auto;html=1;entryX=0.5;entryY=0;entryDx=0;entryDy=0;" edge="1" parent="1" source="3ncYa1L-NdRY1o7BDm7d-58" target="3ncYa1L-NdRY1o7BDm7d-88">
          <mxGeometry relative="1" as="geometry" />
        </mxCell>
        <mxCell id="3ncYa1L-NdRY1o7BDm7d-58" value="Register" style="rounded=0;whiteSpace=wrap;html=1;" vertex="1" parent="1">
          <mxGeometry x="646" y="1772" width="120" height="60" as="geometry" />
        </mxCell>
        <mxCell id="3ncYa1L-NdRY1o7BDm7d-109" style="edgeStyle=orthogonalEdgeStyle;rounded=0;orthogonalLoop=1;jettySize=auto;html=1;entryX=0.5;entryY=0;entryDx=0;entryDy=0;" edge="1" parent="1" source="3ncYa1L-NdRY1o7BDm7d-62" target="3ncYa1L-NdRY1o7BDm7d-78">
          <mxGeometry relative="1" as="geometry" />
        </mxCell>
        <mxCell id="3ncYa1L-NdRY1o7BDm7d-62" value="Edit comment" style="rounded=0;whiteSpace=wrap;html=1;" vertex="1" parent="1">
          <mxGeometry x="-80" y="1720" width="120" height="60" as="geometry" />
        </mxCell>
        <mxCell id="3ncYa1L-NdRY1o7BDm7d-108" style="edgeStyle=orthogonalEdgeStyle;rounded=0;orthogonalLoop=1;jettySize=auto;html=1;entryX=0.5;entryY=0;entryDx=0;entryDy=0;" edge="1" parent="1" source="3ncYa1L-NdRY1o7BDm7d-64" target="3ncYa1L-NdRY1o7BDm7d-78">
          <mxGeometry relative="1" as="geometry">
            <Array as="points">
              <mxPoint x="150" y="1860" />
              <mxPoint x="-20" y="1860" />
            </Array>
          </mxGeometry>
        </mxCell>
        <mxCell id="3ncYa1L-NdRY1o7BDm7d-64" value="Delete comment" style="rounded=0;whiteSpace=wrap;html=1;" vertex="1" parent="1">
          <mxGeometry x="90" y="1720" width="120" height="60" as="geometry" />
        </mxCell>
        <mxCell id="3ncYa1L-NdRY1o7BDm7d-78" value="End" style="ellipse;whiteSpace=wrap;html=1;aspect=fixed;fillColor=#f8cecc;strokeColor=#b85450;" vertex="1" parent="1">
          <mxGeometry x="-60" y="1950" width="80" height="80" as="geometry" />
        </mxCell>
        <mxCell id="3ncYa1L-NdRY1o7BDm7d-87" value="" style="edgeStyle=orthogonalEdgeStyle;rounded=0;orthogonalLoop=1;jettySize=auto;html=1;startArrow=block;startFill=1;endArrow=none;endFill=0;" edge="1" parent="1" source="3ncYa1L-NdRY1o7BDm7d-82" target="3ncYa1L-NdRY1o7BDm7d-64">
          <mxGeometry relative="1" as="geometry" />
        </mxCell>
        <mxCell id="3ncYa1L-NdRY1o7BDm7d-82" value="Delete" style="swimlane;fontStyle=0;childLayout=stackLayout;horizontal=1;startSize=30;horizontalStack=0;resizeParent=1;resizeParentMax=0;resizeLast=0;collapsible=1;marginBottom=0;whiteSpace=wrap;html=1;" vertex="1" parent="1">
          <mxGeometry x="250" y="1705" width="140" height="90" as="geometry" />
        </mxCell>
        <mxCell id="3ncYa1L-NdRY1o7BDm7d-83" value="Question id (Number)" style="text;strokeColor=none;fillColor=none;align=left;verticalAlign=middle;spacingLeft=4;spacingRight=4;overflow=hidden;points=[[0,0.5],[1,0.5]];portConstraint=eastwest;rotatable=0;whiteSpace=wrap;html=1;" vertex="1" parent="3ncYa1L-NdRY1o7BDm7d-82">
          <mxGeometry y="30" width="140" height="30" as="geometry" />
        </mxCell>
        <mxCell id="3ncYa1L-NdRY1o7BDm7d-84" value="Answer id (Number)" style="text;strokeColor=none;fillColor=none;align=left;verticalAlign=middle;spacingLeft=4;spacingRight=4;overflow=hidden;points=[[0,0.5],[1,0.5]];portConstraint=eastwest;rotatable=0;whiteSpace=wrap;html=1;" vertex="1" parent="3ncYa1L-NdRY1o7BDm7d-82">
          <mxGeometry y="60" width="140" height="30" as="geometry" />
        </mxCell>
        <mxCell id="3ncYa1L-NdRY1o7BDm7d-88" value="End" style="ellipse;whiteSpace=wrap;html=1;aspect=fixed;fillColor=#f8cecc;strokeColor=#b85450;" vertex="1" parent="1">
          <mxGeometry x="573" y="1912" width="80" height="80" as="geometry" />
        </mxCell>
        <mxCell id="3ncYa1L-NdRY1o7BDm7d-112" value="" style="edgeStyle=orthogonalEdgeStyle;rounded=0;orthogonalLoop=1;jettySize=auto;html=1;" edge="1" parent="1" source="3ncYa1L-NdRY1o7BDm7d-95" target="3ncYa1L-NdRY1o7BDm7d-54">
          <mxGeometry relative="1" as="geometry" />
        </mxCell>
        <mxCell id="3ncYa1L-NdRY1o7BDm7d-121" value="No" style="edgeLabel;html=1;align=center;verticalAlign=middle;resizable=0;points=[];" vertex="1" connectable="0" parent="3ncYa1L-NdRY1o7BDm7d-112">
          <mxGeometry x="0.0714" y="-1" relative="1" as="geometry">
            <mxPoint y="-8" as="offset" />
          </mxGeometry>
        </mxCell>
        <mxCell id="3ncYa1L-NdRY1o7BDm7d-120" style="edgeStyle=orthogonalEdgeStyle;rounded=0;orthogonalLoop=1;jettySize=auto;html=1;entryX=0;entryY=0.5;entryDx=0;entryDy=0;" edge="1" parent="1" source="3ncYa1L-NdRY1o7BDm7d-95" target="3ncYa1L-NdRY1o7BDm7d-119">
          <mxGeometry relative="1" as="geometry" />
        </mxCell>
        <mxCell id="3ncYa1L-NdRY1o7BDm7d-122" value="Yes" style="edgeLabel;html=1;align=center;verticalAlign=middle;resizable=0;points=[];" vertex="1" connectable="0" parent="3ncYa1L-NdRY1o7BDm7d-120">
          <mxGeometry x="-0.1671" y="-1" relative="1" as="geometry">
            <mxPoint y="-1" as="offset" />
          </mxGeometry>
        </mxCell>
        <mxCell id="3ncYa1L-NdRY1o7BDm7d-95" value="logged in?" style="rhombus;whiteSpace=wrap;html=1;" vertex="1" parent="1">
          <mxGeometry x="575" y="1370" width="80" height="80" as="geometry" />
        </mxCell>
        <mxCell id="3ncYa1L-NdRY1o7BDm7d-119" value="End" style="ellipse;whiteSpace=wrap;html=1;aspect=fixed;fillColor=#f8cecc;strokeColor=#b85450;" vertex="1" parent="1">
          <mxGeometry x="750" y="1370" width="80" height="80" as="geometry" />
        </mxCell>
        <mxCell id="3ncYa1L-NdRY1o7BDm7d-130" value="Create Answer" style="swimlane;fontStyle=0;childLayout=stackLayout;horizontal=1;startSize=30;horizontalStack=0;resizeParent=1;resizeParentMax=0;resizeLast=0;collapsible=1;marginBottom=0;whiteSpace=wrap;html=1;" vertex="1" parent="1">
          <mxGeometry x="390" y="1365" width="140" height="90" as="geometry" />
        </mxCell>
        <mxCell id="3ncYa1L-NdRY1o7BDm7d-131" value="Question id (Number)" style="text;strokeColor=none;fillColor=none;align=left;verticalAlign=middle;spacingLeft=4;spacingRight=4;overflow=hidden;points=[[0,0.5],[1,0.5]];portConstraint=eastwest;rotatable=0;whiteSpace=wrap;html=1;" vertex="1" parent="3ncYa1L-NdRY1o7BDm7d-130">
          <mxGeometry y="30" width="140" height="30" as="geometry" />
        </mxCell>
        <mxCell id="3ncYa1L-NdRY1o7BDm7d-134" value="Content (string de HTML)" style="text;strokeColor=none;fillColor=none;align=left;verticalAlign=middle;spacingLeft=4;spacingRight=4;overflow=hidden;points=[[0,0.5],[1,0.5]];portConstraint=eastwest;rotatable=0;whiteSpace=wrap;html=1;" vertex="1" parent="3ncYa1L-NdRY1o7BDm7d-130">
          <mxGeometry y="60" width="140" height="30" as="geometry" />
        </mxCell>
        <mxCell id="3ncYa1L-NdRY1o7BDm7d-143" style="edgeStyle=orthogonalEdgeStyle;rounded=0;orthogonalLoop=1;jettySize=auto;html=1;entryX=0.5;entryY=0;entryDx=0;entryDy=0;" edge="1" parent="1" source="3ncYa1L-NdRY1o7BDm7d-135" target="3ncYa1L-NdRY1o7BDm7d-137">
          <mxGeometry relative="1" as="geometry" />
        </mxCell>
        <mxCell id="3ncYa1L-NdRY1o7BDm7d-135" value="Filter question" style="rounded=0;whiteSpace=wrap;html=1;" vertex="1" parent="1">
          <mxGeometry x="-286" y="810" width="120" height="60" as="geometry" />
        </mxCell>
        <mxCell id="3ncYa1L-NdRY1o7BDm7d-142" style="edgeStyle=orthogonalEdgeStyle;rounded=0;orthogonalLoop=1;jettySize=auto;html=1;entryX=0.5;entryY=0;entryDx=0;entryDy=0;" edge="1" parent="1" source="3ncYa1L-NdRY1o7BDm7d-136" target="3ncYa1L-NdRY1o7BDm7d-137">
          <mxGeometry relative="1" as="geometry" />
        </mxCell>
        <mxCell id="3ncYa1L-NdRY1o7BDm7d-136" value="View recente&amp;nbsp;&lt;div&gt;question&lt;/div&gt;" style="rounded=0;whiteSpace=wrap;html=1;" vertex="1" parent="1">
          <mxGeometry x="-120" y="810" width="120" height="60" as="geometry" />
        </mxCell>
        <mxCell id="3ncYa1L-NdRY1o7BDm7d-147" value="" style="edgeStyle=orthogonalEdgeStyle;rounded=0;orthogonalLoop=1;jettySize=auto;html=1;" edge="1" parent="1" source="3ncYa1L-NdRY1o7BDm7d-137" target="3ncYa1L-NdRY1o7BDm7d-145">
          <mxGeometry relative="1" as="geometry" />
        </mxCell>
        <mxCell id="3ncYa1L-NdRY1o7BDm7d-137" value="View question" style="rounded=0;whiteSpace=wrap;html=1;" vertex="1" parent="1">
          <mxGeometry x="-200" y="940" width="120" height="60" as="geometry" />
        </mxCell>
        <mxCell id="3ncYa1L-NdRY1o7BDm7d-140" style="edgeStyle=orthogonalEdgeStyle;rounded=0;orthogonalLoop=1;jettySize=auto;html=1;entryX=0.5;entryY=0;entryDx=0;entryDy=0;" edge="1" parent="1" source="3ncYa1L-NdRY1o7BDm7d-138" target="3ncYa1L-NdRY1o7BDm7d-136">
          <mxGeometry relative="1" as="geometry">
            <Array as="points">
              <mxPoint x="-140" y="780" />
              <mxPoint x="-60" y="780" />
            </Array>
          </mxGeometry>
        </mxCell>
        <mxCell id="3ncYa1L-NdRY1o7BDm7d-141" style="edgeStyle=orthogonalEdgeStyle;rounded=0;orthogonalLoop=1;jettySize=auto;html=1;entryX=0.5;entryY=0;entryDx=0;entryDy=0;" edge="1" parent="1" source="3ncYa1L-NdRY1o7BDm7d-138" target="3ncYa1L-NdRY1o7BDm7d-135">
          <mxGeometry relative="1" as="geometry">
            <Array as="points">
              <mxPoint x="-140" y="780" />
              <mxPoint x="-226" y="780" />
            </Array>
          </mxGeometry>
        </mxCell>
        <mxCell id="3ncYa1L-NdRY1o7BDm7d-189" value="Yes" style="edgeLabel;html=1;align=center;verticalAlign=middle;resizable=0;points=[];" vertex="1" connectable="0" parent="3ncYa1L-NdRY1o7BDm7d-141">
          <mxGeometry x="-0.7955" y="-2" relative="1" as="geometry">
            <mxPoint x="2" y="12" as="offset" />
          </mxGeometry>
        </mxCell>
        <mxCell id="3ncYa1L-NdRY1o7BDm7d-184" style="edgeStyle=orthogonalEdgeStyle;rounded=0;orthogonalLoop=1;jettySize=auto;html=1;entryX=1;entryY=0.5;entryDx=0;entryDy=0;" edge="1" parent="1" source="3ncYa1L-NdRY1o7BDm7d-138" target="3ncYa1L-NdRY1o7BDm7d-156">
          <mxGeometry relative="1" as="geometry" />
        </mxCell>
        <mxCell id="3ncYa1L-NdRY1o7BDm7d-188" value="No" style="edgeLabel;html=1;align=center;verticalAlign=middle;resizable=0;points=[];" vertex="1" connectable="0" parent="3ncYa1L-NdRY1o7BDm7d-184">
          <mxGeometry x="-0.3897" y="-2" relative="1" as="geometry">
            <mxPoint x="3" y="2" as="offset" />
          </mxGeometry>
        </mxCell>
        <mxCell id="3ncYa1L-NdRY1o7BDm7d-138" value="logged in?" style="rhombus;whiteSpace=wrap;html=1;" vertex="1" parent="1">
          <mxGeometry x="-180" y="640" width="80" height="80" as="geometry" />
        </mxCell>
        <mxCell id="3ncYa1L-NdRY1o7BDm7d-146" style="edgeStyle=orthogonalEdgeStyle;rounded=0;orthogonalLoop=1;jettySize=auto;html=1;entryX=0;entryY=0.5;entryDx=0;entryDy=0;" edge="1" parent="1" source="3ncYa1L-NdRY1o7BDm7d-145" target="3ncYa1L-NdRY1o7BDm7d-23">
          <mxGeometry relative="1" as="geometry" />
        </mxCell>
        <mxCell id="3ncYa1L-NdRY1o7BDm7d-186" style="edgeStyle=orthogonalEdgeStyle;rounded=0;orthogonalLoop=1;jettySize=auto;html=1;entryX=0.5;entryY=0;entryDx=0;entryDy=0;exitX=0.5;exitY=1;exitDx=0;exitDy=0;" edge="1" parent="1" source="3ncYa1L-NdRY1o7BDm7d-145" target="3ncYa1L-NdRY1o7BDm7d-167">
          <mxGeometry relative="1" as="geometry">
            <mxPoint x="-140" y="1170" as="sourcePoint" />
            <Array as="points">
              <mxPoint x="-140" y="1160" />
              <mxPoint x="-290" y="1160" />
            </Array>
          </mxGeometry>
        </mxCell>
        <mxCell id="3ncYa1L-NdRY1o7BDm7d-187" style="edgeStyle=orthogonalEdgeStyle;rounded=0;orthogonalLoop=1;jettySize=auto;html=1;entryX=0.5;entryY=0;entryDx=0;entryDy=0;exitX=0.5;exitY=1;exitDx=0;exitDy=0;" edge="1" parent="1" source="3ncYa1L-NdRY1o7BDm7d-145" target="3ncYa1L-NdRY1o7BDm7d-168">
          <mxGeometry relative="1" as="geometry">
            <mxPoint x="-140" y="1170" as="sourcePoint" />
            <Array as="points">
              <mxPoint x="-140" y="1160" />
              <mxPoint x="10" y="1160" />
            </Array>
          </mxGeometry>
        </mxCell>
        <mxCell id="3ncYa1L-NdRY1o7BDm7d-191" style="edgeStyle=orthogonalEdgeStyle;rounded=0;orthogonalLoop=1;jettySize=auto;html=1;entryX=0.5;entryY=0;entryDx=0;entryDy=0;" edge="1" parent="1" source="3ncYa1L-NdRY1o7BDm7d-145" target="3ncYa1L-NdRY1o7BDm7d-190">
          <mxGeometry relative="1" as="geometry" />
        </mxCell>
        <mxCell id="3ncYa1L-NdRY1o7BDm7d-145" value="decision-making" style="rhombus;whiteSpace=wrap;html=1;" vertex="1" parent="1">
          <mxGeometry x="-180" y="1040" width="80" height="80" as="geometry" />
        </mxCell>
        <mxCell id="3ncYa1L-NdRY1o7BDm7d-155" value="" style="edgeStyle=orthogonalEdgeStyle;rounded=0;orthogonalLoop=1;jettySize=auto;html=1;" edge="1" source="3ncYa1L-NdRY1o7BDm7d-156" target="3ncYa1L-NdRY1o7BDm7d-161" parent="1">
          <mxGeometry relative="1" as="geometry" />
        </mxCell>
        <mxCell id="3ncYa1L-NdRY1o7BDm7d-156" value="Login" style="rounded=0;whiteSpace=wrap;html=1;" vertex="1" parent="1">
          <mxGeometry x="-637" y="650" width="120" height="60" as="geometry" />
        </mxCell>
        <mxCell id="3ncYa1L-NdRY1o7BDm7d-157" style="edgeStyle=orthogonalEdgeStyle;rounded=0;orthogonalLoop=1;jettySize=auto;html=1;" edge="1" source="3ncYa1L-NdRY1o7BDm7d-158" target="3ncYa1L-NdRY1o7BDm7d-164" parent="1">
          <mxGeometry relative="1" as="geometry" />
        </mxCell>
        <mxCell id="3ncYa1L-NdRY1o7BDm7d-158" value="Login" style="rounded=0;whiteSpace=wrap;html=1;" vertex="1" parent="1">
          <mxGeometry x="-740" y="900" width="120" height="60" as="geometry" />
        </mxCell>
        <mxCell id="3ncYa1L-NdRY1o7BDm7d-159" style="edgeStyle=orthogonalEdgeStyle;rounded=0;orthogonalLoop=1;jettySize=auto;html=1;entryX=0.5;entryY=0;entryDx=0;entryDy=0;" edge="1" source="3ncYa1L-NdRY1o7BDm7d-161" target="3ncYa1L-NdRY1o7BDm7d-158" parent="1">
          <mxGeometry relative="1" as="geometry" />
        </mxCell>
        <mxCell id="3ncYa1L-NdRY1o7BDm7d-160" style="edgeStyle=orthogonalEdgeStyle;rounded=0;orthogonalLoop=1;jettySize=auto;html=1;entryX=0.5;entryY=0;entryDx=0;entryDy=0;" edge="1" source="3ncYa1L-NdRY1o7BDm7d-161" target="3ncYa1L-NdRY1o7BDm7d-163" parent="1">
          <mxGeometry relative="1" as="geometry" />
        </mxCell>
        <mxCell id="3ncYa1L-NdRY1o7BDm7d-161" value="do you have an account?" style="rhombus;whiteSpace=wrap;html=1;" vertex="1" parent="1">
          <mxGeometry x="-627" y="750" width="100" height="100" as="geometry" />
        </mxCell>
        <mxCell id="3ncYa1L-NdRY1o7BDm7d-162" style="edgeStyle=orthogonalEdgeStyle;rounded=0;orthogonalLoop=1;jettySize=auto;html=1;entryX=0.5;entryY=0;entryDx=0;entryDy=0;" edge="1" source="3ncYa1L-NdRY1o7BDm7d-163" target="3ncYa1L-NdRY1o7BDm7d-164" parent="1">
          <mxGeometry relative="1" as="geometry" />
        </mxCell>
        <mxCell id="3ncYa1L-NdRY1o7BDm7d-163" value="Register" style="rounded=0;whiteSpace=wrap;html=1;" vertex="1" parent="1">
          <mxGeometry x="-547" y="900" width="120" height="60" as="geometry" />
        </mxCell>
        <mxCell id="3ncYa1L-NdRY1o7BDm7d-164" value="End" style="ellipse;whiteSpace=wrap;html=1;aspect=fixed;fillColor=#f8cecc;strokeColor=#b85450;" vertex="1" parent="1">
          <mxGeometry x="-620" y="1040" width="80" height="80" as="geometry" />
        </mxCell>
        <mxCell id="3ncYa1L-NdRY1o7BDm7d-183" style="edgeStyle=orthogonalEdgeStyle;rounded=0;orthogonalLoop=1;jettySize=auto;html=1;entryX=0.5;entryY=0;entryDx=0;entryDy=0;" edge="1" parent="1" source="3ncYa1L-NdRY1o7BDm7d-167" target="3ncYa1L-NdRY1o7BDm7d-181">
          <mxGeometry relative="1" as="geometry">
            <Array as="points">
              <mxPoint x="-290" y="1370" />
              <mxPoint x="-140" y="1370" />
            </Array>
          </mxGeometry>
        </mxCell>
        <mxCell id="3ncYa1L-NdRY1o7BDm7d-167" value="Edit question" style="rounded=0;whiteSpace=wrap;html=1;" vertex="1" parent="1">
          <mxGeometry x="-350" y="1238" width="120" height="60" as="geometry" />
        </mxCell>
        <mxCell id="3ncYa1L-NdRY1o7BDm7d-182" style="edgeStyle=orthogonalEdgeStyle;rounded=0;orthogonalLoop=1;jettySize=auto;html=1;entryX=0.5;entryY=0;entryDx=0;entryDy=0;" edge="1" parent="1" source="3ncYa1L-NdRY1o7BDm7d-168" target="3ncYa1L-NdRY1o7BDm7d-181">
          <mxGeometry relative="1" as="geometry">
            <Array as="points">
              <mxPoint x="10" y="1370" />
              <mxPoint x="-140" y="1370" />
            </Array>
          </mxGeometry>
        </mxCell>
        <mxCell id="3ncYa1L-NdRY1o7BDm7d-168" value="Delete question" style="rounded=0;whiteSpace=wrap;html=1;" vertex="1" parent="1">
          <mxGeometry x="-50" y="1238" width="120" height="60" as="geometry" />
        </mxCell>
        <mxCell id="3ncYa1L-NdRY1o7BDm7d-179" value="" style="edgeStyle=orthogonalEdgeStyle;rounded=0;orthogonalLoop=1;jettySize=auto;html=1;startArrow=block;startFill=1;endArrow=none;endFill=0;" edge="1" parent="1" source="3ncYa1L-NdRY1o7BDm7d-172">
          <mxGeometry relative="1" as="geometry">
            <mxPoint x="-50" y="1270" as="targetPoint" />
          </mxGeometry>
        </mxCell>
        <mxCell id="3ncYa1L-NdRY1o7BDm7d-180" value="" style="edgeStyle=orthogonalEdgeStyle;rounded=0;orthogonalLoop=1;jettySize=auto;html=1;endArrow=none;endFill=0;startArrow=block;startFill=1;" edge="1" parent="1" source="3ncYa1L-NdRY1o7BDm7d-172">
          <mxGeometry relative="1" as="geometry">
            <mxPoint x="-230" y="1270" as="targetPoint" />
          </mxGeometry>
        </mxCell>
        <mxCell id="3ncYa1L-NdRY1o7BDm7d-172" value="Edit or delete" style="swimlane;fontStyle=0;childLayout=stackLayout;horizontal=1;startSize=30;horizontalStack=0;resizeParent=1;resizeParentMax=0;resizeLast=0;collapsible=1;marginBottom=0;whiteSpace=wrap;html=1;" vertex="1" parent="1">
          <mxGeometry x="-210" y="1210" width="140" height="120" as="geometry" />
        </mxCell>
        <mxCell id="3ncYa1L-NdRY1o7BDm7d-173" value="Question id (Number)" style="text;strokeColor=none;fillColor=none;align=left;verticalAlign=middle;spacingLeft=4;spacingRight=4;overflow=hidden;points=[[0,0.5],[1,0.5]];portConstraint=eastwest;rotatable=0;whiteSpace=wrap;html=1;" vertex="1" parent="3ncYa1L-NdRY1o7BDm7d-172">
          <mxGeometry y="30" width="140" height="30" as="geometry" />
        </mxCell>
        <mxCell id="3ncYa1L-NdRY1o7BDm7d-175" value="Tags (strings)" style="text;strokeColor=none;fillColor=none;align=left;verticalAlign=middle;spacingLeft=4;spacingRight=4;overflow=hidden;points=[[0,0.5],[1,0.5]];portConstraint=eastwest;rotatable=0;whiteSpace=wrap;html=1;" vertex="1" parent="3ncYa1L-NdRY1o7BDm7d-172">
          <mxGeometry y="60" width="140" height="30" as="geometry" />
        </mxCell>
        <mxCell id="3ncYa1L-NdRY1o7BDm7d-193" value="Content (string de HTML)" style="text;strokeColor=none;fillColor=none;align=left;verticalAlign=middle;spacingLeft=4;spacingRight=4;overflow=hidden;points=[[0,0.5],[1,0.5]];portConstraint=eastwest;rotatable=0;whiteSpace=wrap;html=1;" vertex="1" parent="3ncYa1L-NdRY1o7BDm7d-172">
          <mxGeometry y="90" width="140" height="30" as="geometry" />
        </mxCell>
        <mxCell id="3ncYa1L-NdRY1o7BDm7d-181" value="End" style="ellipse;whiteSpace=wrap;html=1;aspect=fixed;fillColor=#f8cecc;strokeColor=#b85450;" vertex="1" parent="1">
          <mxGeometry x="-180" y="1420" width="80" height="80" as="geometry" />
        </mxCell>
        <mxCell id="3ncYa1L-NdRY1o7BDm7d-192" style="edgeStyle=orthogonalEdgeStyle;rounded=0;orthogonalLoop=1;jettySize=auto;html=1;entryX=0.5;entryY=0;entryDx=0;entryDy=0;" edge="1" parent="1" source="3ncYa1L-NdRY1o7BDm7d-190" target="3ncYa1L-NdRY1o7BDm7d-181">
          <mxGeometry relative="1" as="geometry">
            <Array as="points">
              <mxPoint x="-457" y="1370" />
              <mxPoint x="-140" y="1370" />
            </Array>
          </mxGeometry>
        </mxCell>
        <mxCell id="3ncYa1L-NdRY1o7BDm7d-190" value="Define best answer" style="rounded=0;whiteSpace=wrap;html=1;" vertex="1" parent="1">
          <mxGeometry x="-517" y="1240" width="120" height="60" as="geometry" />
        </mxCell>
        <mxCell id="3ncYa1L-NdRY1o7BDm7d-207" style="edgeStyle=orthogonalEdgeStyle;rounded=0;orthogonalLoop=1;jettySize=auto;html=1;entryX=0;entryY=0.5;entryDx=0;entryDy=0;" edge="1" parent="1" source="3ncYa1L-NdRY1o7BDm7d-195" target="3ncYa1L-NdRY1o7BDm7d-197">
          <mxGeometry relative="1" as="geometry" />
        </mxCell>
        <mxCell id="3ncYa1L-NdRY1o7BDm7d-208" value="No" style="edgeLabel;html=1;align=center;verticalAlign=middle;resizable=0;points=[];" vertex="1" connectable="0" parent="3ncYa1L-NdRY1o7BDm7d-207">
          <mxGeometry x="-0.5494" y="-1" relative="1" as="geometry">
            <mxPoint y="-1" as="offset" />
          </mxGeometry>
        </mxCell>
        <mxCell id="3ncYa1L-NdRY1o7BDm7d-210" style="edgeStyle=orthogonalEdgeStyle;rounded=0;orthogonalLoop=1;jettySize=auto;html=1;entryX=0.5;entryY=0;entryDx=0;entryDy=0;" edge="1" parent="1" source="3ncYa1L-NdRY1o7BDm7d-195" target="3ncYa1L-NdRY1o7BDm7d-209">
          <mxGeometry relative="1" as="geometry" />
        </mxCell>
        <mxCell id="3ncYa1L-NdRY1o7BDm7d-195" value="logged in?" style="rhombus;whiteSpace=wrap;html=1;" vertex="1" parent="1">
          <mxGeometry x="1050" y="650" width="80" height="80" as="geometry" />
        </mxCell>
        <mxCell id="3ncYa1L-NdRY1o7BDm7d-196" value="" style="edgeStyle=orthogonalEdgeStyle;rounded=0;orthogonalLoop=1;jettySize=auto;html=1;" edge="1" source="3ncYa1L-NdRY1o7BDm7d-197" target="3ncYa1L-NdRY1o7BDm7d-202" parent="1">
          <mxGeometry relative="1" as="geometry" />
        </mxCell>
        <mxCell id="3ncYa1L-NdRY1o7BDm7d-197" value="Login" style="rounded=0;whiteSpace=wrap;html=1;" vertex="1" parent="1">
          <mxGeometry x="1363" y="660" width="120" height="60" as="geometry" />
        </mxCell>
        <mxCell id="3ncYa1L-NdRY1o7BDm7d-198" style="edgeStyle=orthogonalEdgeStyle;rounded=0;orthogonalLoop=1;jettySize=auto;html=1;" edge="1" source="3ncYa1L-NdRY1o7BDm7d-199" target="3ncYa1L-NdRY1o7BDm7d-205" parent="1">
          <mxGeometry relative="1" as="geometry" />
        </mxCell>
        <mxCell id="3ncYa1L-NdRY1o7BDm7d-199" value="Login" style="rounded=0;whiteSpace=wrap;html=1;" vertex="1" parent="1">
          <mxGeometry x="1260" y="910" width="120" height="60" as="geometry" />
        </mxCell>
        <mxCell id="3ncYa1L-NdRY1o7BDm7d-200" style="edgeStyle=orthogonalEdgeStyle;rounded=0;orthogonalLoop=1;jettySize=auto;html=1;entryX=0.5;entryY=0;entryDx=0;entryDy=0;" edge="1" source="3ncYa1L-NdRY1o7BDm7d-202" target="3ncYa1L-NdRY1o7BDm7d-199" parent="1">
          <mxGeometry relative="1" as="geometry" />
        </mxCell>
        <mxCell id="3ncYa1L-NdRY1o7BDm7d-201" style="edgeStyle=orthogonalEdgeStyle;rounded=0;orthogonalLoop=1;jettySize=auto;html=1;entryX=0.5;entryY=0;entryDx=0;entryDy=0;" edge="1" source="3ncYa1L-NdRY1o7BDm7d-202" target="3ncYa1L-NdRY1o7BDm7d-204" parent="1">
          <mxGeometry relative="1" as="geometry" />
        </mxCell>
        <mxCell id="3ncYa1L-NdRY1o7BDm7d-202" value="do you have an account?" style="rhombus;whiteSpace=wrap;html=1;" vertex="1" parent="1">
          <mxGeometry x="1373" y="760" width="100" height="100" as="geometry" />
        </mxCell>
        <mxCell id="3ncYa1L-NdRY1o7BDm7d-203" style="edgeStyle=orthogonalEdgeStyle;rounded=0;orthogonalLoop=1;jettySize=auto;html=1;entryX=0.5;entryY=0;entryDx=0;entryDy=0;" edge="1" source="3ncYa1L-NdRY1o7BDm7d-204" target="3ncYa1L-NdRY1o7BDm7d-205" parent="1">
          <mxGeometry relative="1" as="geometry" />
        </mxCell>
        <mxCell id="3ncYa1L-NdRY1o7BDm7d-204" value="Register" style="rounded=0;whiteSpace=wrap;html=1;" vertex="1" parent="1">
          <mxGeometry x="1453" y="910" width="120" height="60" as="geometry" />
        </mxCell>
        <mxCell id="3ncYa1L-NdRY1o7BDm7d-205" value="End" style="ellipse;whiteSpace=wrap;html=1;aspect=fixed;fillColor=#f8cecc;strokeColor=#b85450;" vertex="1" parent="1">
          <mxGeometry x="1380" y="1050" width="80" height="80" as="geometry" />
        </mxCell>
        <mxCell id="3ncYa1L-NdRY1o7BDm7d-217" value="" style="edgeStyle=orthogonalEdgeStyle;rounded=0;orthogonalLoop=1;jettySize=auto;html=1;" edge="1" parent="1" source="3ncYa1L-NdRY1o7BDm7d-209" target="3ncYa1L-NdRY1o7BDm7d-216">
          <mxGeometry relative="1" as="geometry" />
        </mxCell>
        <mxCell id="3ncYa1L-NdRY1o7BDm7d-209" value="Create question" style="rounded=0;whiteSpace=wrap;html=1;" vertex="1" parent="1">
          <mxGeometry x="1030" y="790" width="120" height="60" as="geometry" />
        </mxCell>
        <mxCell id="3ncYa1L-NdRY1o7BDm7d-215" value="" style="edgeStyle=orthogonalEdgeStyle;rounded=0;orthogonalLoop=1;jettySize=auto;html=1;startArrow=block;startFill=1;endArrow=block;endFill=1;" edge="1" parent="1" source="3ncYa1L-NdRY1o7BDm7d-211" target="3ncYa1L-NdRY1o7BDm7d-209">
          <mxGeometry relative="1" as="geometry" />
        </mxCell>
        <mxCell id="3ncYa1L-NdRY1o7BDm7d-211" value="Create" style="swimlane;fontStyle=0;childLayout=stackLayout;horizontal=1;startSize=30;horizontalStack=0;resizeParent=1;resizeParentMax=0;resizeLast=0;collapsible=1;marginBottom=0;whiteSpace=wrap;html=1;" vertex="1" parent="1">
          <mxGeometry x="850" y="760" width="140" height="120" as="geometry" />
        </mxCell>
        <mxCell id="3ncYa1L-NdRY1o7BDm7d-212" value="Question id (Number)" style="text;strokeColor=none;fillColor=none;align=left;verticalAlign=middle;spacingLeft=4;spacingRight=4;overflow=hidden;points=[[0,0.5],[1,0.5]];portConstraint=eastwest;rotatable=0;whiteSpace=wrap;html=1;" vertex="1" parent="3ncYa1L-NdRY1o7BDm7d-211">
          <mxGeometry y="30" width="140" height="30" as="geometry" />
        </mxCell>
        <mxCell id="3ncYa1L-NdRY1o7BDm7d-213" value="Tags (strings)" style="text;strokeColor=none;fillColor=none;align=left;verticalAlign=middle;spacingLeft=4;spacingRight=4;overflow=hidden;points=[[0,0.5],[1,0.5]];portConstraint=eastwest;rotatable=0;whiteSpace=wrap;html=1;" vertex="1" parent="3ncYa1L-NdRY1o7BDm7d-211">
          <mxGeometry y="60" width="140" height="30" as="geometry" />
        </mxCell>
        <mxCell id="3ncYa1L-NdRY1o7BDm7d-214" value="Content (string de HTML)" style="text;strokeColor=none;fillColor=none;align=left;verticalAlign=middle;spacingLeft=4;spacingRight=4;overflow=hidden;points=[[0,0.5],[1,0.5]];portConstraint=eastwest;rotatable=0;whiteSpace=wrap;html=1;" vertex="1" parent="3ncYa1L-NdRY1o7BDm7d-211">
          <mxGeometry y="90" width="140" height="30" as="geometry" />
        </mxCell>
        <mxCell id="3ncYa1L-NdRY1o7BDm7d-216" value="End" style="ellipse;whiteSpace=wrap;html=1;aspect=fixed;fillColor=#f8cecc;strokeColor=#b85450;" vertex="1" parent="1">
          <mxGeometry x="1050" y="910" width="80" height="80" as="geometry" />
        </mxCell>
      </root>
    </mxGraphModel>
  </diagram>
</mxfile>
